<?xml version="1.0" encoding="utf-8"?>
<!-- Generator: Adobe Illustrator 26.4.1, SVG Export Plug-In . SVG Version: 6.00 Build 0)  -->
<svg version="1.1" xmlns="http://www.w3.org/2000/svg" xmlns:xlink="http://www.w3.org/1999/xlink" x="0px" y="0px"
	 viewBox="0 0 2445.4 3666.8" style="enable-background:new 0 0 2445.4 3666.8;" xml:space="preserve">
<style type="text/css">
	.st0{fill:#009933;}
	.st1{display:none;}
	.st2{display:inline;fill:#FFFFFF;}
	.st3{fill:#CC3333;}
	.st4{display:inline;fill:#009933;}
	.st5{fill:#006633;}
	.st6{fill:#FFFFFF;}
</style>
<g id="Layer_5">
	<g>
		<path class="st0" d="M2005.9,857.8L2005.9,857.8c56.3-62.2,116.3-129.5,187.4-192.7c67.9-60.3,135.8-120.6,203.7-180.9
			c-49.9-59.1-228.5-202.9-332.7-253.8c-332.1,431-401.1,400.6-197.8-114.8c-137.4-60.4-210.4-66.7-365.9-76.7
			c-26.8,557.3-103.6,552.1-188.8,1.3c-157,11.9-342.5,68.1-448,115.7C1063.7,657.4,985,699.3,702,245.3
			c-117.6,50.9-244.3,186.2-327.6,311.5C805.8,866,746.4,963.5,280.5,710.1C210,798.9,78.7,1006.7,66.4,1155
			c542.7,83.8,547.4,203.4,0,242.8c20.3,242.1,110.5,387.8,208.3,587.9l435-309.2c-0.4-0.7-0.8-1.4-1.3-2.1c0.7-0.2,1.4-0.5,2.1-0.7
			c0.4,0.6,0.8,1.2,1.2,1.8c84.9,127.4,222.1,236.9,419.1,307.4c23.1,8.2,43.7,19.2,62.5,32c-933.7,254.1-764.7,1601.8,204.8,1618.6
			c787,4.4,1135.3-1021,494.2-1474.2c3.4-7.1,6.2-14.6,8.7-22.5c44-11.6,60.6-63,46.5-105C2326.3,1708.8,2291.7,1176.3,2005.9,857.8
			z M1171.9,1673.6c-371.8-394,187.7-941.6,579.2-574.5C2123,1493.2,1563.5,2040.8,1171.9,1673.6z M1050.2,2782.8
			c2.9-199,209.1-403,391.8-466.7c53.9,49,124.5,77.4,230.6,60.4h-0.1c3.9-0.4,7.6-1.9,10.7-4.2c302.7,268.9,230.1,800-223.6,816.8
			C1234.4,3189.1,1050.4,3008.2,1050.2,2782.8z"/>
	</g>
</g>
<g id="White_Border" class="st1">
	<path class="st2" d="M1500.6,38.8c155.6,10,228.6,16.3,365.9,76.7c-109.5,277.5-140,414.3-93,414.3c40.3,0,137.5-100.6,290.8-299.6
		c104.2,51,282.8,194.7,332.7,253.8c-67.9,60.3-135.8,120.6-203.7,180.9c-71.2,63.2-131.1,130.5-187.4,192.7l0,0
		c285.8,318.5,320.4,851-58.5,1174.2c14.1,42-2.5,93.4-46.5,105c-2.5,7.9-5.4,15.4-8.7,22.5c639.8,452.3,294.4,1474.3-489.1,1474.3
		c-1.6,0-3.4,0-5,0c-969.5-16.7-1138.4-1364.4-204.8-1618.6c-18.8-12.8-39.5-23.8-62.5-32c-196.9-70.5-334.2-180-419.1-307.4
		c-0.4-0.6-0.8-1.2-1.2-1.8c-0.7,0.3-1.4,0.5-2.1,0.7c0.4,0.7,0.8,1.4,1.3,2.1l-435,309.2C176.9,1785.7,86.7,1640,66.4,1397.9
		c547.4-39.4,542.7-159,0-242.8C78.7,1006.7,210,798.9,280.5,710.1C462.9,809.3,583,854.7,635.7,854.7c82,0,1.2-109.8-261.4-298
		c83.3-125.2,210-260.5,327.6-311.5c131.8,211.4,219.3,315.3,254.9,315.3c40.9,0,13.7-136.8-93.1-404.8
		c105.4-47.6,291-103.7,448-115.7C1354.5,316,1395,455,1428.3,455C1461.4,455,1487.2,316.9,1500.6,38.8 M1458,1794.8
		c315,0,578.6-393.1,293.1-695.6c-90.9-85.2-190.8-121.2-286.1-121.2c-315,0-578.6,393.1-293.1,695.6
		C1262.8,1758.9,1362.8,1794.8,1458,1794.8 M1459.6,3189c0,0,0.1,0,0.1,0c453.7-16.8,526.3-547.9,223.6-816.8
		c-3.1,2.3-6.8,3.8-10.7,4.2h0.1c-21,3.4-40.7,5-59.1,5c-74.4,0-128.3-26.1-171.5-65.3c-182.7,63.8-388.8,267.7-391.8,466.7
		C1050.4,3008.2,1234.3,3189,1459.6,3189 M1473.1,8l-1.4,29.4c-5.8,120-14,215.6-24.3,284.2c-4.9,32.6-10.3,58.9-16.1,78.2
		c-1.6,5.4-3.1,9.9-4.5,13.6c-1.9-3.7-4-8.2-6.3-13.9c-7.9-19.1-16.2-45.4-24.8-78.1c-17.9-68.6-36.4-164.8-55.2-285.9l-4.1-26.5
		l-26.8,2C1147.8,23.5,958.9,81,851.9,129.3l-25.3,11.4l10.3,25.8c43.2,108.5,74.2,197.4,92.2,264.4c13.7,51.1,16.8,79,17,93.5
		c-11.4-8.7-31.6-27.4-63.9-67.7c-42.6-53.2-94.9-129.4-155.5-226.7l-13.2-21.2l-22.9,9.9c-30.3,13.1-62.1,31.9-94.7,55.8
		c-29.8,21.9-60.3,48.1-90.8,78c-55.9,55-109.5,120.1-154.8,188.2L334.7,564l22.8,16.3c90.7,65,164.8,124.5,214.2,172.2
		c40.4,38.9,56,61.8,62,73.2c-14.5-0.4-47.7-5.6-116.2-33c-61.3-24.5-136.4-60.8-223.2-108L272.9,673l-15.2,19.1
		c-34.1,43-86.7,119.3-131.8,204.6c-24,45.4-43.6,88.7-58.1,128.8c-17.1,47-27.3,89.8-30.4,127.1l-2.2,26.9l26.7,4.1
		c322.2,49.8,375.5,99.3,383.2,109.4c-4.7,5.2-24.1,21.1-95.5,38.1c-68.6,16.3-164.6,29-285.3,37.7l-29.3,2.1l2.5,29.2
		c17.9,212.9,88.3,353,169.8,515.2c13.4,26.7,27.3,54.4,41.3,83l15,30.7l27.9-19.8l413-293.5c42.8,58.7,95.7,111.7,157.4,158
		c72.8,54.6,158.4,99.9,254.3,134.7c-88.2,30.8-168.3,72.6-238.9,124.8c-83.3,61.5-152.8,136.7-206.6,223.7
		c-51,82.4-86.9,173.5-106.8,270.8c-19.3,94.2-22.9,191.2-10.8,288.1c12.1,97.1,39.6,190.3,81.5,277.1
		c43.3,89.6,100.8,169.3,170.6,236.8c73.8,71.3,160,127.3,256.1,166.5c102.5,41.8,215.6,64.1,336.1,66.2l0.2,0l0.2,0
		c1.7,0,3.5,0,5.2,0c99.4,0,195.3-16,285.1-47.6c84.9-29.8,164-73.4,235-129.5c67.9-53.6,127.5-117.8,177.2-190.9
		c48.5-71.3,86.4-149.4,112.7-232.1c25.6-80.7,39.6-163.8,41.4-247c1.9-85.5-9.1-169.4-32.6-249.5
		c-24.6-83.8-62.7-162.2-113.2-233.1c-47.7-67-106.4-127-174.8-179c14-8.7,25.6-21.1,33.9-36.4c12-22.2,16.2-49.3,12-75.3
		c81.9-72.8,147-157.6,193.4-252.5c46-93.8,72.9-195.4,80-301.8c3.9-58.2,1.7-117.5-6.5-176.2c-8.1-57.8-22-115.4-41.3-171
		c-19.3-55.5-44.2-109.3-73.8-159.8c-25.5-43.5-54.6-84.7-86.8-122.8c51.5-57,105.1-115.6,167.9-171.4
		c67.9-60.3,136.4-121.2,203.7-180.9l21.2-18.8l-18.3-21.6c-26.2-31-83.8-82.4-150.4-134.2c-73.2-56.9-143.1-103.2-191.8-127
		l-21.3-10.4l-14.4,18.7c-74.3,96.4-135.8,170.1-182.8,218.9c-22.9,23.8-42.6,42-58.5,54c-8.4,6.3-14.5,10-18.7,12.2
		c-0.3-4.8-0.3-11.9,0.9-22.2c2.1-19.8,7.6-46.1,16.3-78c17.9-65.8,49.9-157.1,94.9-271.4l10.2-26L1878.2,89
		c-69.1-30.4-123.6-48.1-182.4-59.2c-55.7-10.5-112.7-14.7-193.3-19.9L1473.1,8L1473.1,8z M1192.4,1653.1
		c-112.7-119.8-143.3-267.3-84-404.8c61.3-142.1,207.9-241.3,356.6-241.3c94.9,0,186.7,39,265.6,112.7
		c112.7,119.8,143.3,267.3,84,404.8c-61.3,142.1-207.9,241.3-356.6,241.3C1363.2,1765.8,1271.3,1726.8,1192.4,1653.1L1192.4,1653.1z
		 M1079.2,2783c1.3-84.8,44.3-178.9,121.1-265c66.2-74.3,153.3-136.5,235.7-168.8c50.8,41.2,109,61.2,177.5,61.2
		c19.9,0,41-1.7,62.8-5.2c141.4,134.3,197.3,343.2,136,513.9c-52.6,146.6-181.3,234.4-353.2,240.9
		C1249.8,3159.8,1079.5,2990.8,1079.2,2783L1079.2,2783z"/>
</g>
<g id="Layer_4">
	<g>
		<g>
			<path class="st3" d="M2397.1,484.2c-49.9-59.1-228.5-202.9-332.7-253.8c-332.1,431-401.1,400.6-197.8-114.8
				c-137.4-60.4-210.4-66.7-365.9-76.7c-26.8,557.3-103.6,552.1-188.8,1.3c-157,11.9-342.5,68.1-448,115.7
				C1063.7,657.4,985,699.3,702,245.3c-117.6,50.9-244.3,186.2-327.6,311.5C805.8,866,746.4,963.5,280.5,710.1
				C210,798.9,78.7,1006.7,66.4,1155c542.7,83.8,547.4,203.4,0,242.8c20.3,242.1,110.5,387.8,208.3,587.9l435-309.2
				c-35.7-58.1-115-205.4-102.9-402.6c15.6-254.3,172.4-413.6,217.7-458.2c113.1-111.4,233.4-156.1,284.9-174.6
				c28-10.1,153.4-53.4,323.3-47.6c51.5,1.8,146.9,5.9,260,47.6c154.6,57,256.9,152.9,313.4,216.6
				c56.3-62.3,116.3-129.5,187.4-192.7C2261.3,604.7,2329.2,544.4,2397.1,484.2z"/>
		</g>
	</g>
</g>
<g id="Layer_2" class="st1">
	<path class="st4" d="M1524.2,1831.8c173.9,24.3,232.7-54.2,400.9,162.3C2721.2,1201.9,1537.4,116,800.4,905.2
		c-298.6,371-145.4,875.5,344.9,1037.3c224.1,68.5,224.7,380.7,466.6,395.4c-56.3-61.4-103.5-168.5-76-252.5
		c56-115.7,179-77.5,351.7,10.2c12.4-1.3,19.4-13.5,21.1-25.8c1.3-9.5-0.2-20.8-5.5-33.2c-186.8-257.3-255.6-99-511.9-192.3
		c-383-99.4-526.4-548.7-209.7-811.2l-25.7-48.9c-3.5-6.6-1-14.8,5.6-18.2c6.6-3.5,14.8-1,18.2,5.6l23.9,45.3
		c25.1-17.3,52-32.2,80.4-44.2l-15.6-50.5c-2.2-7.1,1.8-14.7,8.9-16.9c7.1-2.2,14.7,1.8,16.9,8.9l15,48.6
		c22.3-7.8,45.4-14.1,69.1-18.5l-3.7-52.2c-0.5-7.5,5-13.9,12.5-14.5c7.5-0.5,13.9,5,14.5,12.5l3.6,50c23-2.8,47.1-4,70.6-3.2
		l9.8-51.4c1.4-7.3,8.4-12.1,15.8-10.8c7.3,1.4,12.1,8.4,10.8,15.8l-9.2,48.1c23.9,2.2,47.3,6.2,69.9,11.9l22.8-47.4
		c3.2-6.7,11.3-9.5,18-6.3s9.5,11.3,6.3,18l-20.8,43.3c23.2,7.4,45.6,16.5,67,27.3l32.8-40.7c4.7-5.8,13.2-6.7,19-2.1
		c5.8,4.7,6.7,13.2,2.1,19l-29.7,36.9c24,14,46.6,30.2,67.6,48.1l46-39.5c5.7-4.9,14.2-4.2,19.1,1.5c4.9,5.7,4.2,14.2-1.5,19.1
		l-43.5,37.3c84.3,81.9,136.4,195.5,136.4,321.6C1914.2,1612.8,1745.3,1801.2,1524.2,1831.8z"/>
	<path class="st4" d="M1162.6,3121.5c-317.8-277.5-96.5-704.1,246.9-839.6c-61.9-72.1-104.8-166.1-174.5-233.1
		c-602.5,125-831.3,884.5-391.7,1313.3c813.2,738.8,1881-454.4,1031.2-1173.3c-14,18.4-32,34.3-55.4,50c-6.2,4.2-14.6,2.5-18.7-3.7
		c-2.7-4-2.9-8.9-1.1-13l0,0c16.5-36.4,25.2-76.9,13.9-116.4c-114.5-50.7-202.1-77.2-236.5-6c-19.5,63.7,16.4,147.5,55.5,196.9
		c40.7-1.8,73.9-11.6,111.5-28.6c3.4-1.8,7.6-2.1,11.4-0.5c28.6,15.3-28.6,66.5-40.2,74.8c224.5,196.7,283.3,604.2,25.3,793.4
		l53.9,54.9c5.2,5.4,5.1,13.9-0.2,19.1c-5.4,5.2-13.9,5.1-19.1-0.2c0,0-56.6-57.6-56.6-57.7c-21.7,14.9-44.7,28.1-68.9,39.2l38,56.7
		c4.2,6.2,2.5,14.6-3.7,18.7c-6.2,4.2-14.6,2.5-18.7-3.7c-1.3-2.3-39.6-58.4-40.8-61c-21,8.1-42.8,14.7-65.2,19.7
		c0.7,0.9,1.3,2,1.7,3.2l23.1,61.1c2.6,7-0.9,14.7-7.9,17.4c-7,2.6-14.7-0.9-17.4-7.9c-0.8-4.6-27.4-65.8-23.5-69.1
		c-22.5,3.7-45.5,5.8-69,6.1c2.3-0.1,7.6,65.9,8.2,68.3c0.8,7.4-4.7,14-12.1,14.8c-7.4,0.8-14-4.7-14.8-12.1
		c0.5-5.6-9.8-68.1-4.4-71.3c-23.3-0.9-46.2-3.5-68.4-7.7c0.1,0.9,0,1.7-0.2,2.6l-10.2,64.5c-1.1,7.4-8.1,12.4-15.4,11.2
		c-7.4-1.1-12.4-8.1-11.2-15.4l10.2-64.5c0.2-1.4,0.6-2.8,1.3-4c-22.3-5.6-44-12.8-64.9-21.5l-24.8,61.2
		c-2.8,6.9-10.7,10.3-17.6,7.5c-6.9-2.8-10.3-10.7-7.5-17.6l25.3-62.2c-26.9-13.2-52.2-29-75.7-47l-33.7,52.5
		c-4.1,6.3-12.4,8.1-18.7,4.1c-6.3-4.1-8.1-12.4-4.1-18.7l35.3-55.1L1162.6,3121.5z"/>
</g>
<g id="Layer_1">
	<g>
		<path class="st5" d="M1524.2,1831.8c173.9,24.3,232.7-54.2,400.9,162.3C2721.2,1201.9,1537.4,116,800.4,905.2
			c-298.6,371-145.4,875.5,344.9,1037.3c224.1,68.5,224.7,380.7,466.6,395.4c-56.3-61.4-103.5-168.5-76-252.5
			c56-115.7,179-77.5,351.7,10.2c12.4-1.3,19.4-13.5,21.1-25.8c1.3-9.5-0.2-20.8-5.5-33.2c-186.8-257.3-255.6-99-511.9-192.3
			c-383-99.4-526.4-548.7-209.7-811.2l-25.7-48.9c-3.5-6.6-1-14.8,5.6-18.2c6.6-3.5,14.8-1,18.2,5.6l23.9,45.3
			c25.1-17.3,52-32.2,80.4-44.2l-15.6-50.5c-2.2-7.1,1.8-14.7,8.9-16.9c7.1-2.2,14.7,1.8,16.9,8.9l15,48.6
			c22.3-7.8,45.4-14.1,69.1-18.5l-3.7-52.2c-0.5-7.5,5-13.9,12.5-14.5c7.5-0.5,13.9,5,14.5,12.5l3.6,50c23-2.8,47.1-4,70.6-3.2
			l9.8-51.4c1.4-7.3,8.4-12.1,15.8-10.8c7.3,1.4,12.1,8.4,10.8,15.8l-9.2,48.1c23.9,2.2,47.3,6.2,69.9,11.9l22.8-47.4
			c3.2-6.7,11.3-9.5,18-6.3s9.5,11.3,6.3,18l-20.8,43.3c23.2,7.4,45.6,16.5,67,27.3l32.8-40.7c4.7-5.8,13.2-6.7,19-2.1
			c5.8,4.7,6.7,13.2,2.1,19l-29.7,36.9c24,14,46.6,30.2,67.6,48.1l46-39.5c5.7-4.9,14.2-4.2,19.1,1.5c4.9,5.7,4.2,14.2-1.5,19.1
			l-43.5,37.3c84.3,81.9,136.4,195.5,136.4,321.6C1914.2,1612.8,1745.3,1801.2,1524.2,1831.8z M1162.4,3121.5
			c-317.8-277.5-96.5-704.1,246.9-839.6c-61.9-72.1-104.8-166.1-174.5-233.1c-602.5,125-831.3,884.5-391.7,1313.3
			c813.2,738.8,1881-454.4,1031.2-1173.3c-14,18.4-32,34.3-55.4,50c-6.2,4.2-14.6,2.5-18.7-3.7c-2.7-4-2.9-8.9-1.1-13l0,0
			c16.5-36.4,25.2-76.9,13.9-116.4c-114.5-50.7-202.1-77.2-236.5-6c-19.5,63.7,16.4,147.5,55.5,196.9c40.7-1.8,73.9-11.6,111.5-28.6
			c3.4-1.8,7.6-2.1,11.4-0.5c28.6,15.3-28.6,66.5-40.2,74.8c224.5,196.7,283.3,604.2,25.3,793.4l53.9,54.9
			c5.2,5.4,5.1,13.9-0.2,19.1c-5.4,5.2-13.9,5.1-19.1-0.2c0,0-56.6-57.6-56.6-57.7c-21.7,14.9-44.7,28.1-68.9,39.2l38,56.7
			c4.2,6.2,2.5,14.6-3.7,18.7c-6.2,4.2-14.6,2.5-18.7-3.7c-1.3-2.3-39.6-58.4-40.8-61c-21,8.1-42.8,14.7-65.2,19.7
			c0.7,0.9,1.3,2,1.7,3.2l23.1,61.1c2.6,7-0.9,14.7-7.9,17.4c-7,2.6-14.7-0.9-17.4-7.9c-0.8-4.6-27.4-65.8-23.5-69.1
			c-22.5,3.7-45.5,5.8-69,6.1c2.3-0.1,7.6,65.9,8.2,68.3c0.8,7.4-4.7,14-12.1,14.8c-7.4,0.8-14-4.7-14.8-12.1
			c0.5-5.6-9.8-68.1-4.4-71.3c-23.3-0.9-46.2-3.5-68.4-7.7c0.1,0.9,0,1.7-0.2,2.6l-10.2,64.5c-1.1,7.4-8.1,12.4-15.4,11.2
			c-7.4-1.1-12.4-8.1-11.2-15.4l10.2-64.5c0.2-1.4,0.6-2.8,1.3-4c-22.3-5.6-44-12.8-64.9-21.5l-24.8,61.2
			c-2.8,6.9-10.7,10.3-17.6,7.5c-6.9-2.8-10.3-10.7-7.5-17.6l25.3-62.2c-26.9-13.2-52.2-29-75.7-47l-33.7,52.5
			c-4.1,6.3-12.4,8.1-18.7,4.1c-6.3-4.1-8.1-12.4-4.1-18.7l35.3-55.1L1162.4,3121.5z M1679.5,2335.5c10.8-8.5,21.8-16.3,32.2-25.9
			c-18,6-35.5,10.3-54.8,12.2C1664.4,2327.8,1671.8,2332.3,1679.5,2335.5z M1843.6,2121.1c3.1,22.6,1.2,44.8-4.1,66.7
			c14.9-14.9,25.6-31.3,33-51.3C1862.7,2131.2,1852.9,2125.9,1843.6,2121.1z M1892.2,2159.3c641.2,453.2,292.9,1478.7-494.1,1474.3
			c-969.5-16.7-1138.4-1364.4-204.8-1618.6c-18.8-12.8-39.5-23.8-62.5-32c-263.3-94.2-420-258.3-487.3-441.4
			c-165.5-482,229.9-956.4,756.4-948.2c750.9-10,1118.2,951.7,547.6,1438.5c14.1,42-2.5,93.4-46.5,105
			C1898.5,2144.8,1895.6,2152.3,1892.2,2159.3L1892.2,2159.3z M1672.6,2376.4c-106.1,17-176.7-11.4-230.6-60.4
			c-182.7,63.8-388.8,267.7-391.8,466.7c0.1,225.5,184.2,406.3,409.5,406.2c453.7-16.8,526.3-547.9,223.6-816.8
			C1680.1,2374.5,1676.5,2376,1672.6,2376.4L1672.6,2376.4z M1171.9,1673.6c391.5,367.1,951-180.4,579.2-574.5
			C1359.6,732,800.1,1279.6,1171.9,1673.6z"/>
	</g>
	<g>
		<path class="st5" d="M2001.5,3172.1c52.5-70.8,121.5-224.1,110.7-333.7c-0.5-7.5,5.1-13.9,12.6-14.3c7.5-0.5,13.9,5.1,14.3,12.6
			c11.4,116.1-59.9,275.6-115.6,351C2013,3202.1,1991.5,3186.7,2001.5,3172.1L2001.5,3172.1z"/>
		<path class="st5" d="M722,1219.1c20.9-103,63.7-201.7,137.8-277.3c5.3-5.3,13.8-5.4,19.1-0.2c5.3,5.3,5.4,13.8,0.2,19.1
			c-70.2,71.7-110.8,166-130.6,263.7C744.7,1241.7,718.9,1236.4,722,1219.1L722,1219.1z"/>
		<path class="st5" d="M1325.2,2036c-25.4-36.3-56.8-64.3-96.9-79.6c-16.5-6.4-6.9-31.5,9.6-25.3c45.3,17.4,80.7,48.4,109.4,89.4
			c4.2,6.1,2.8,14.5-3.4,18.8c-6.1,4.2-14.5,2.8-18.8-3.4H1325.2z"/>
		<path class="st5" d="M1480.8,2093.4c-0.2,8.3,0.2,16.6,1.3,24.8c1.9,17.6-24.1,21-26.7,3.5c-12.6-78.9,36.4-167.9,125.4-162.7
			c17.7,0.8,16.9,27.2-0.8,27C1518.2,1982.3,1481,2036.7,1480.8,2093.4z"/>
		<path class="st5" d="M1624.5,1934.8c28,5.2,52-1.9,78.7-4.8c-28.9,36.2-1,93.4,45.9,92.5c68.4-0.9,77.8-94.7,12.5-113.8
			c-50.8-14.9-86.1,5.9-132.1-0.4C1611.9,1905.4,1607.1,1931.3,1624.5,1934.8z"/>
	</g>
</g>
<g id="Layer_7">
	<circle cx="1746" cy="1966.1" r="37.7"/>
</g>
<g id="White_details">
	<path class="st6" d="M1757.3,1933.2c-24.3-8.2-35.1,32.3-16.3,52.6c13.8-12.7,20-23.5,18.3-51.9L1757.3,1933.2z"/>
	<path class="st6" d="M1679.5,2335.5c10.8-8.5,21.8-16.3,32.2-25.9c-18,6-35.5,10.3-54.8,12.2
		C1664.4,2327.8,1671.8,2332.3,1679.5,2335.5z"/>
	<path class="st6" d="M1843.6,2121.1c3.1,22.6,1.2,44.8-4.1,66.7c14.9-14.9,25.6-31.3,33-51.3
		C1862.7,2131.2,1852.9,2125.9,1843.6,2121.1z"/>
</g>
</svg>
