<?xml version="1.0" encoding="UTF-8"?><svg xmlns="http://www.w3.org/2000/svg" viewBox="0 0 512.26 610.68"><defs><style>.f,.g{fill:#c33;}.h{fill:#369;stroke:#369;}.h,.i,.j,.g{stroke-miterlimit:10;}.i{stroke:#fc3;}.i,.k{fill:#fc3;}.j{fill:#4b8b00;stroke:#4b8b00;}.g{stroke:#c33;}</style></defs><g id="a"><path class="j" d="M240.92,382.43c46.67-31.57,12.1-105.31-42-89.64-4.1-8.61-7.79-17.32-10.71-26.17,33.56-10.66,36.27-66.75,4.24-80.61,68.01-93.31,199.04-69.03,253.23,48.89-8.13,7.71-25.01,22.21-43.14,29.18-44.36-6.68-76.84-34.83-82.77-58.73l-19.88,4.94c5.33,21.46,23.21,41.49,47.24,55.56-30.33-6.59-62.88-24.69-81.19-59.4l-18.11,9.55c8.81,16.7,20.97,30.47,34.92,41.48-4.47,49.67,62.92,86.65,63.99,135.75h-104.13c-.27-3.57-.86-7.18-1.67-10.81h-.01"/><path class="j" d="M66.8,450.92c0-20.52,16.69-37.21,37.21-37.21h90.98c9.75,54.02,88.87,54,98.61,0h111.46c20.52,0,37.21,16.69,37.21,37.21,1.56,21.14-14.6,39.8-35.81,40.48-8.61-56-90.54-55.92-99.06,.07h-108.25c-8.52-55.95-90.32-56.07-99.05-.21-20-1.98-34.79-20.08-33.3-40.34Z"/><path class="j" d="M488.31,552.49h0c-1.62,45.61-50.87,36.78-82.11,37.21-9.75-54.02-88.87-54-98.61,0h-108.71c-9.75-54.02-88.87-54-98.61,0-35.22,.13-82.02,7.27-79.43-43.7,28.92,21.2,72.82,1.31,77.5-34.06h106.62c8.55,56.05,90.54,56.02,99.08,0h109.13c4.61,34.16,45.89,54.41,75.06,35.64,.11,1.06,.07,3.8,.07,4.91"/><path class="j" d="M52.93,334.63h0c48.76-18.2,99.63,7.31,119.27,58.6h-57.2c-6.44-32.3-35.61-50.17-62.07-58.6"/></g><g id="b"><path class="i" d="M208.5,311.67c27.69-4.48,45.41,30.1,25.52,49.85-6.74-16.05-16.86-33.52-25.52-49.85Z"/><path class="i" d="M192.6,225.67c-.25,9.33-3.58,14.98-9.96,17.7-1.76-11.45-1.47-24.13,1.18-35.11,5.91,3.03,9.01,8.55,8.77,17.41Z"/><path class="i" d="M272.41,413.71c-8.37,27.22-47.88,27.21-56.25,0h56.25Z"/><path class="i" d="M385.55,491.47h-57.23c7.48-29.25,49.76-29.24,57.23,0Z"/><path class="i" d="M178.22,491.47h-57.24c7.49-29.25,49.76-29.23,57.24,0Z"/><path class="i" d="M283.15,511.94c-7.48,29.25-49.76,29.23-57.24,0h57.24Z"/><path class="i" d="M57.92,511.95h19.54c-5.01,21.15-33.43,29.85-48.68,14.15,6.82-8.61,17.34-14.15,29.14-14.15"/><path class="i" d="M481.31,527.43h0c-15.69,14.01-42.33,4.75-47.19-15.52,17.34-.86,36.89-.28,47.19,15.52"/><path class="i" d="M328.8,589.7c8.37-27.22,47.88-27.21,56.25,0h-56.25Z"/><path class="i" d="M121.48,589.7c8.38-27.22,47.87-27.21,56.25,0h-56.25Z"/><path class="i" d="M346.47,168.35c3.61,0,6.55,3.16,6.55,7.04s-2.94,7.04-6.55,7.04-6.55-3.16-6.55-7.04,2.94-7.04,6.55-7.04Z"/></g><g id="c"><g><path class="h" d="M437.61,267.92c22.14-16.36,24.84-20.94,33.05-29.38C376.45,6.19,56.45,119.51,197.22,333.89c11.78,21.69,22.84,42.25,24.72,59.35h-27.88C168.58,303.86,55.22,280.44,.98,347.06c30.28,2.97,76.64,5.27,93.09,47.09-43.88,5.92-62.96,64.99-34.07,97.32-77.61-1.42-79.77,117.38-2.08,118.71H451.13c31.81,0,57.69-25.87,57.69-57.69,1.71-32.93-24.58-61.14-57.68-61.03h-2.06c31.64-35.64,5.56-99.8-44.02-98.24h-37.83c-.17-48.1-50.35-82.08-62.81-121.52,35,17.9,72.27,23.29,105.19,11.6l28-15.38Zm43.71,259.55c-15.69,14.01-42.33,4.75-47.19-15.52,17.34-.86,36.89-.28,47.19,15.52h0ZM192.6,225.67c-.25,9.33-3.58,14.98-9.96,17.7-1.76-11.45-1.47-24.13,1.18-35.11,5.91,3.03,9.01,8.55,8.77,17.41Zm15.9,86c27.69-4.48,45.41,30.1,25.52,49.85-6.74-16.05-16.86-33.52-25.52-49.85Zm32.41,70.75c46.67-31.57,12.1-105.31-42-89.64-4.1-8.61-7.79-17.32-10.71-26.17,33.56-10.66,36.27-66.75,4.24-80.61,68.01-93.31,199.04-69.03,253.23,48.89-8.13,7.71-25.01,22.21-43.14,29.18-44.36-6.68-76.84-34.83-82.77-58.73l-19.88,4.94c5.33,21.46,23.21,41.49,47.24,55.56-30.33-6.59-62.88-24.69-81.19-59.4l-18.11,9.55c8.81,16.7,20.97,30.47,34.92,41.48-4.47,49.67,62.92,86.65,63.99,135.75h-104.13c-.27-3.57-.86-7.18-1.67-10.81h-.01Zm31.49,31.28c-8.37,27.22-47.88,27.21-56.25,0h56.25ZM52.93,334.63c48.76-18.2,99.63,7.31,119.27,58.6h-57.2c-6.44-32.3-35.61-50.17-62.07-58.6h0Zm13.87,116.29c0-20.52,16.69-37.21,37.21-37.21h90.98c9.75,54.02,88.87,54,98.61,0h111.46c20.52,0,37.21,16.69,37.21,37.21,1.56,21.14-14.6,39.8-35.81,40.48-8.61-56-90.54-55.92-99.06,.07h-108.25c-8.52-55.95-90.32-56.07-99.05-.21-20-1.98-34.79-20.08-33.3-40.34Zm318.75,40.55h-57.23c7.48-29.25,49.76-29.24,57.23,0Zm-102.4,20.48c-7.48,29.25-49.76,29.23-57.24,0h57.24Zm-104.93-20.48h-57.24c7.49-29.25,49.76-29.23,57.24,0Zm-120.3,20.48h19.54c-5.01,21.15-33.43,29.85-48.68,14.15,6.82-8.61,17.34-14.15,29.14-14.15h0Zm63.56,77.76c8.38-27.22,47.87-27.21,56.25,0h-56.25Zm207.32,0c8.37-27.22,47.88-27.21,56.25,0h-56.25Zm159.54-37.21c-1.62,45.61-50.87,36.78-82.11,37.21-9.75-54.02-88.87-54-98.61,0h-108.71c-9.75-54.02-88.87-54-98.61,0-35.22,.13-82.02,7.27-79.43-43.7,28.92,21.2,72.82,1.31,77.5-34.06h106.62c8.55,56.05,90.54,56.02,99.08,0h109.13c4.61,34.16,45.89,54.41,75.06,35.64,.11,1.06,.07,3.8,.07,4.91h0Z"/><path class="h" d="M346.47,202.91c14.91,0,27.03-12.34,27.03-27.52s-12.12-27.52-27.03-27.52-27.04,12.34-27.04,27.52,12.13,27.52,27.04,27.52Zm0-34.56c3.61,0,6.55,3.16,6.55,7.04s-2.94,7.04-6.55,7.04-6.55-3.16-6.55-7.04,2.94-7.04,6.55-7.04Z"/></g></g><g id="d"><path class="f" d="M501.81,89.17C457.95,37.27,393.26,4.57,322.31,0c-5.36,111.58-20.75,110.54-37.81,.26-31.43,2.39-68.59,13.63-89.7,23.16,40.03,100.44,24.26,108.83-32.4,17.92-23.54,10.2-48.92,37.28-65.6,62.36,86.39,61.93,74.5,81.45-18.8,30.72-14.11,17.78-21.85,55.35-24.31,85.06,108.66,16.78,109.44,27.81-.16,35.7,3.21,43.83,19.01,85.47,45.36,120.92l87.11-61.9C94.26,150.56,289.63,44.27,417.3,157.75c0,0,84.51-68.57,84.5-68.57Z"/><path class="g" d="M409.61,283.3c39,3.81,65.42,23.89,70.88,54.23l20.16-3.62c-1.5-8.35-4.2-16.07-7.88-23.16,6.59-3.15,12.89-6.87,18.79-11.29l-12.3-16.38c-5.73,4.3-11.92,7.82-18.44,10.63-10.83-11.72-25.51-20.48-43.22-25.78"/></g><g id="e"><path class="k" d="M346.47,165.63c5,0,9.08,4.38,9.08,9.76s-4.07,9.76-9.08,9.76-9.09-4.38-9.09-9.76,4.07-9.76,9.09-9.76Z"/></g></svg>